<svg xmlns="http://www.w3.org/2000/svg" xmlns:xlink="http://www.w3.org/1999/xlink" width="500" zoomAndPan="magnify" viewBox="0 0 375 374.999991" height="500" preserveAspectRatio="xMidYMid meet" version="1.0"><defs><clipPath id="d9a123320e"><path d="M 18 41 L 357 41 L 357 334 L 18 334 Z M 18 41 " clip-rule="nonzero"/></clipPath><clipPath id="b99e9bb549"><path d="M -1.109375 148.429688 L 299.214844 30.90625 L 375.742188 226.46875 L 75.417969 343.992188 Z M -1.109375 148.429688 " clip-rule="nonzero"/></clipPath><clipPath id="407a1c9f09"><path d="M -1.109375 148.429688 L 299.214844 30.90625 L 375.742188 226.46875 L 75.417969 343.992188 Z M -1.109375 148.429688 " clip-rule="nonzero"/></clipPath><clipPath id="f2283a4070"><path d="M 137.714844 140.25 L 237 140.25 L 237 234.75 L 137.714844 234.75 Z M 137.714844 140.25 " clip-rule="nonzero"/></clipPath></defs><rect x="-37.5" width="450" fill="#ffffff" y="-37.499999" height="449.999989" fill-opacity="1"/><rect x="-37.5" width="450" fill="#ef4444" y="-37.499999" height="449.999989" fill-opacity="1"/><g clip-path="url(#d9a123320e)"><g clip-path="url(#b99e9bb549)"><g clip-path="url(#407a1c9f09)"><path fill="#ffffff" d="M 276.800781 188.851562 C 274.234375 190.289062 271.550781 189.292969 269.5625 186.113281 C 267.023438 182.039062 264.527344 177.933594 262.003906 173.847656 C 259.542969 169.855469 257.0625 165.871094 254.636719 161.859375 C 252.730469 158.714844 253.089844 155.71875 255.488281 154.125 C 257.988281 152.464844 261.039062 153.453125 263.070312 156.722656 C 268.085938 164.78125 273.070312 172.867188 278.003906 180.972656 C 280.007812 184.269531 279.472656 187.367188 276.800781 188.851562 Z M 240.742188 139.300781 C 238.1875 135.214844 235.683594 131.105469 233.160156 127.011719 C 230.699219 123.003906 228.195312 119.019531 225.777344 114.988281 C 223.875 111.828125 224.382812 108.96875 227.019531 107.40625 C 229.582031 105.890625 232.214844 106.65625 234.09375 109.671875 C 239.191406 117.84375 244.234375 126.042969 249.242188 134.265625 C 251.238281 137.542969 250.804688 140.269531 248.214844 141.90625 C 245.515625 143.628906 242.875 142.722656 240.742188 139.300781 Z M 331.128906 135.113281 C 330.3125 135.300781 329.539062 135.433594 328.792969 135.660156 C 314.757812 139.949219 301.316406 134.972656 293.585938 122.621094 C 286.0625 110.605469 287.414062 95.4375 297.222656 85.160156 C 299.039062 83.25 299.003906 82.089844 297.75 80.074219 C 290.214844 68.007812 282.800781 55.867188 275.324219 43.761719 C 274.769531 42.855469 274.101562 42.027344 273.488281 41.183594 C 253.679688 53.378906 234.175781 65.386719 214.460938 77.535156 C 216.730469 81.21875 218.976562 84.683594 221.03125 88.257812 C 222.890625 91.488281 221.074219 95.535156 217.542969 95.464844 C 215.78125 95.425781 213.558594 94.035156 212.410156 92.574219 C 210.078125 89.625 208.332031 86.210938 206.242188 82.8125 C 143.5 121.441406 81.085938 159.878906 18.507812 198.414062 C 27.117188 212.386719 35.613281 226.1875 44.277344 240.257812 C 44.855469 240.054688 45.273438 239.914062 45.699219 239.773438 C 59.585938 235.171875 74.308594 240.199219 81.914062 252.136719 C 89.550781 264.132812 87.9375 279.488281 77.796875 290.128906 C 76.382812 291.613281 76.253906 292.65625 77.339844 294.410156 C 85.113281 306.859375 92.769531 319.375 100.480469 331.863281 C 100.871094 332.496094 101.421875 333.042969 101.914062 333.648438 C 164.40625 295.175781 226.738281 256.785156 289.019531 218.441406 C 288.949219 218.019531 288.964844 217.769531 288.867188 217.601562 C 287.128906 214.722656 285.382812 211.851562 283.632812 208.980469 C 281.390625 205.277344 281.679688 202.496094 284.480469 200.820312 C 287.265625 199.164062 289.816406 200.175781 292.144531 203.910156 C 294.019531 206.917969 295.867188 209.941406 297.78125 213.046875 C 317.632812 200.820312 337.128906 188.816406 356.753906 176.734375 C 348.144531 162.761719 339.652344 148.960938 331.128906 135.113281 " fill-opacity="1" fill-rule="nonzero"/></g></g></g><g clip-path="url(#f2283a4070)"><path fill="#ef4444" d="M 236.59375 185.144531 L 229.027344 224.707031 C 227.917969 230.511719 222.820312 234.726562 216.910156 234.726562 L 174.933594 234.726562 C 172.828125 234.726562 170.804688 234.183594 169.027344 233.164062 C 167.828125 232.476562 167.089844 231.195312 167.089844 229.8125 L 167.089844 181.425781 C 167.089844 179.941406 167.9375 178.582031 169.277344 177.945312 C 170.578125 177.328125 171.816406 176.601562 172.988281 175.773438 C 174.792969 174.5 178.144531 172.125 180.171875 167.859375 C 180.90625 166.316406 181.648438 163.929688 181.945312 153.386719 C 182.046875 149.855469 182.070312 146.296875 182.015625 142.808594 C 182.003906 142.058594 182.539062 141.414062 183.273438 141.28125 C 183.296875 141.277344 183.332031 141.269531 183.378906 141.261719 C 186.394531 140.628906 192.113281 140.242188 196.539062 144.773438 C 200.421875 148.746094 200.765625 154.28125 200.792969 155.351562 C 200.792969 155.367188 200.792969 155.378906 200.792969 155.394531 L 200.792969 171.957031 L 225.6875 171.957031 C 229.007812 171.957031 232.128906 173.425781 234.242188 175.984375 C 236.359375 178.542969 237.214844 181.882812 236.59375 185.144531 Z M 156.574219 177.160156 C 156.339844 177.132812 156.101562 177.113281 155.863281 177.113281 L 143.824219 177.113281 C 140.492188 177.113281 137.78125 179.953125 137.78125 183.445312 L 137.78125 225.667969 C 137.78125 228.992188 140.238281 231.722656 143.347656 231.976562 C 143.582031 232.003906 143.820312 232.019531 144.058594 232.019531 L 156.097656 232.019531 C 159.429688 232.019531 162.144531 229.183594 162.144531 225.691406 L 162.144531 183.46875 C 162.144531 180.144531 159.683594 177.414062 156.574219 177.160156 Z M 156.574219 177.160156 " fill-opacity="1" fill-rule="nonzero"/></g></svg>